<?xml version="1.0" encoding="UTF-8"?>
<svg width="25px" height="32px" viewBox="0 0 25 32" version="1.1" xmlns="http://www.w3.org/2000/svg" xmlns:xlink="http://www.w3.org/1999/xlink">
    <!-- Generator: Sketch 47.1 (45422) - http://www.bohemiancoding.com/sketch -->
    <title>nature</title>
    <desc>Created with Sketch.</desc>
    <defs></defs>
    <g id="Page-1" stroke="none" stroke-width="1" fill="none" fill-rule="evenodd">
        <g id="101_InsureMyCar-Insurance-Copy" transform="translate(-927.000000, -609.000000)">
            <g id="nature" transform="translate(927.095238, 609.000000)">
                <g id="Capa_1">
                    <path d="M24.1948933,30.1657449 L22.2286796,30.1657449 C19.9282467,28.1991706 16.5467495,27.0382151 12.8545886,26.941048 L12.8545886,23.9613227 L15.1782406,21.6364488 C15.603317,21.7155023 16.033912,21.754827 16.4653147,21.754827 C18.4530648,21.754827 20.4504391,20.9324414 21.9362546,19.4458446 C23.8149089,17.5662023 24.6320166,14.868888 24.0688375,12.4065795 C24.02563,12.2176995 23.8781724,12.0701643 23.6893916,12.026934 C21.2283773,11.4634588 18.5324806,12.2810635 16.6538262,14.1606385 C14.8455019,15.9698464 14.0213276,18.5365944 14.4643735,20.9222736 L12.8545886,22.532905 L12.8545886,13.22075 L14.3706225,11.7039189 C14.663586,11.7539502 14.9599145,11.7785956 15.2565123,11.7785956 C16.7372801,11.7785956 18.224307,11.1667725 19.3300035,10.0604271 C20.7283943,8.66136831 21.3363289,6.65216981 20.9165694,4.81696986 C20.8733618,4.62802251 20.7259042,4.48055469 20.5371234,4.4373244 C18.7028881,4.01747881 16.6948129,4.62559838 15.2964221,6.02472455 C13.9680248,7.35382033 13.3536293,9.23326063 13.6552074,10.9912251 L12.8545886,11.7922649 L12.8545886,10.8155432 C12.8545886,9.25635718 12.2526439,7.79016346 11.1598693,6.68092266 C11.4598994,4.92403553 10.8454366,3.04627866 9.51798162,1.71812559 C8.11959082,0.318999428 6.11165023,-0.289187478 4.27721294,0.130725448 C4.0884322,0.173955739 3.94097459,0.321490893 3.89776702,0.510370905 C3.4780075,2.34550352 4.08594205,4.35470202 5.48433285,5.75382819 C6.59016398,6.86024084 8.07698896,7.4719966 9.55782411,7.4719966 C9.855566,7.4719966 10.1531733,7.44708194 10.4473482,7.3966466 C11.3485154,8.31491995 11.8449987,9.52691686 11.8449987,10.8156105 L11.8449987,18.2232758 L10.2352138,16.6126445 C10.6782597,14.2270327 9.85401806,11.6602846 8.04576106,9.85100937 C6.16710668,7.97129973 3.47114274,7.15369506 1.01019568,7.71730493 C0.821414944,7.76053523 0.673957333,7.90807038 0.630749763,8.09695039 C0.0675707172,10.5592589 0.884678365,13.2565732 2.76333275,15.1362155 C4.24928281,16.622947 6.24638786,17.4451979 8.23427259,17.4451979 C8.66554068,17.4451979 9.09627035,17.4058058 9.52134669,17.3267523 L11.845066,19.6516936 L11.845066,26.9409806 C8.15290507,27.0381478 4.77140794,28.1991033 2.47097498,30.1656776 L0.504761334,30.1656776 C0.225998475,30.1656776 -3.55271368e-15,30.3917949 -3.55271368e-15,30.6707043 C-3.55271368e-15,30.9496138 0.225998475,31.1757311 0.504761334,31.1757311 L24.1948933,31.1757311 C24.4736561,31.1757311 24.6996546,30.9496138 24.6996546,30.6707043 C24.6996546,30.3917949 24.4736561,30.1657449 24.1948933,30.1657449 L24.1948933,30.1657449 Z M17.3676934,14.8748137 C18.9220891,13.3196679 21.1101958,12.597749 23.1480856,12.9481702 C23.4984572,14.9873336 22.7768504,17.176389 21.2224547,18.7316021 C19.82965,20.125072 17.9282477,20.849011 16.0817634,20.7324508 L20.7941479,16.0175883 C20.991274,15.8203585 20.991274,15.5005755 20.7941479,15.3034131 C20.5970218,15.1061833 20.2774069,15.1061833 20.0803481,15.3034131 L15.3679636,20.0182757 C15.2513974,18.1706857 15.9749559,16.2682835 17.3676934,14.8748137 L17.3676934,14.8748137 Z M16.0102892,6.73903441 C17.0835464,5.66521282 18.5830914,5.15331769 19.9925869,5.36192741 C20.2009524,6.77202949 19.6895282,8.27243036 18.6162037,9.34631929 C17.7121425,10.2508559 16.5056956,10.7564887 15.3052386,10.7688114 L18.2085585,7.86396471 C18.4056846,7.66673492 18.4056846,7.34695197 18.2085585,7.14978952 C18.0114323,6.95255973 17.6918175,6.95255973 17.4947586,7.14978952 L14.5883429,10.0577337 C14.5991111,8.8547599 15.1046801,7.64511977 16.0102892,6.73903441 L16.0102892,6.73903441 Z M4.82188407,1.05526112 C6.23137962,0.846920745 7.73085729,1.3584792 8.80418179,2.43236812 C9.70824299,3.33690474 10.21361,4.54412073 10.2259262,5.74507439 L7.32260632,2.84022774 C7.1254802,2.64299795 6.80586532,2.64299795 6.6088065,2.84022774 C6.41168037,3.03745753 6.41168037,3.35724048 6.6088065,3.55440293 L9.51522226,6.46234708 C8.31294806,6.45164051 7.10387641,5.94573836 6.19826728,5.039653 C5.12494278,3.96576407 4.61351859,2.4653632 4.82188407,1.05526112 L4.82188407,1.05526112 Z M3.47719988,14.4220403 C1.92280417,12.8668272 1.20126467,10.6777719 1.55156904,8.63860844 C3.5895261,8.28805252 5.77756553,9.01010613 7.33196123,10.5652519 C8.72469871,11.9587218 9.44818995,13.8611239 9.33169104,15.7086465 L4.61930652,10.9937839 C4.4221804,10.7965542 4.10256552,10.7965542 3.90550669,10.9937839 C3.70838057,11.1910137 3.70838057,11.5107967 3.90550669,11.7079591 L8.61789121,16.4228217 C6.77147425,16.5394492 4.87000465,15.8155102 3.47719988,14.4220403 L3.47719988,14.4220403 Z" id="Shape" fill="#373737"></path>
                    <path d="M12.3498273,27.9436271 C15.4234873,27.9436271 18.3762738,28.7585383 20.5410269,30.1657449 L4.15862768,30.1657449 C6.32338079,28.758471 9.27616729,27.9436271 12.3498273,27.9436271 L12.3498273,27.9436271 Z" id="Path" fill="#FFC83D"></path>
                </g>
            </g>
        </g>
    </g>
</svg>