<?xml version="1.0" encoding="UTF-8"?>
<svg width="22px" height="30px" viewBox="0 0 22 30" version="1.1" xmlns="http://www.w3.org/2000/svg" xmlns:xlink="http://www.w3.org/1999/xlink">
    <!-- Generator: Sketch 47.1 (45422) - http://www.bohemiancoding.com/sketch -->
    <title>open-door</title>
    <desc>Created with Sketch.</desc>
    <defs></defs>
    <g id="Page-1" stroke="none" stroke-width="1" fill="none" fill-rule="evenodd">
        <g id="101_InsureMyCar-Insurance-Copy" transform="translate(-363.000000, -610.000000)">
            <g id="open-door" transform="translate(362.804598, 610.000000)">
                <path d="M0.77225354,29.7877025 C0.531017152,29.7877025 0.335547552,29.6656532 0.335547552,29.3166163 L0.36026494,0.545484325 C0.36026494,0.304247936 0.555734541,0.108778336 0.79697093,0.108778336 L21.107882,0.108778422 C21.3491184,0.108778422 21.544588,0.304248023 21.544588,0.545484411 L21.5445885,29.1931055 C21.5445885,29.4343419 21.3491189,29.6298115 21.1078825,29.6298115 L20.7118857,29.6298114 C20.4706493,29.6298114 20.2751797,29.4343418 20.2751797,29.1931054 L20.2751792,1.43760436 L10.1277042,1.43760436 L17.8934474,2.31980994 C18.1170408,2.34164524 18.2877055,2.52977818 18.2877055,2.75441974 L18.2877055,26.3948871 C18.2877055,26.616035 18.1226307,26.8022464 17.9030549,26.8284488 L1.72283304,28.8252208 C1.72283304,28.8252208 1.69811566,29.2337276 1.69811566,29.3206711 C1.69811566,29.6839776 1.48685387,29.7917573 1.30013615,29.7917573 C0.933031993,29.7917573 0.77225354,29.7877025 0.77225354,29.7877025 Z" id="Path" fill="#373737"></path>
                <polygon id="Path" fill="#FFC83D" points="1.67124781 27.8423857 17.4406728 25.9695324 17.4406728 3.11286495 1.67124781 1.42883531"></polygon>
                <path d="M14.8430236,14.3630694 C14.8430236,14.8960125 15.1409123,15.2675906 15.4083233,15.2675906 C15.6757342,15.2675906 15.973623,14.8960125 15.973623,14.3630694 C15.973623,13.8301262 15.6757342,13.4585481 15.4083233,13.4585481 C15.1409123,13.4585481 14.8430236,13.8301262 14.8430236,14.3630694 Z" id="Path" fill="#373737"></path>
            </g>
        </g>
    </g>
</svg>