<?xml version="1.0" encoding="UTF-8"?>
<svg width="35px" height="29px" viewBox="0 0 35 29" version="1.1" xmlns="http://www.w3.org/2000/svg" xmlns:xlink="http://www.w3.org/1999/xlink">
    <!-- Generator: Sketch 47.1 (45422) - http://www.bohemiancoding.com/sketch -->
    <title>Group 2</title>
    <desc>Created with Sketch.</desc>
    <defs></defs>
    <g id="Page-1" stroke="none" stroke-width="1" fill="none" fill-rule="evenodd">
        <g id="101_InsureMyCar-Insurance-Copy" transform="translate(-562.000000, -611.000000)" stroke-width="0.2">
            <g id="Group-2" transform="translate(563.000000, 612.000000)">
                <path d="M4.117023,27.6730944 C3.73526099,27.6730944 3.36263906,27.5585168 3.0409405,27.3378489 C2.62016989,27.0492832 2.33682707,26.6141495 2.24330435,26.1127503 L0.0500089492,14.3545129 C-0.143238688,13.3192344 0.542104918,12.3197001 1.57754665,12.1264525 L8.4892508,10.8373732 L8.4892508,1.84972591 C8.4892508,0.829789687 9.31904049,3.55271368e-15 10.3389767,3.55271368e-15 L31.433817,3.55271368e-15 C32.4537533,3.55271368e-15 33.2835429,0.829789687 33.2835429,1.84972591 L33.2835429,13.931294 C33.2835429,14.9513935 32.4537533,15.7811831 31.433817,15.7811831 L25.5381319,15.7811831 L26.6171523,21.5658814 C26.710675,22.0674439 26.6034422,22.5755351 26.3148764,22.9963057 C26.0263107,23.4172395 25.5911771,23.7004191 25.0896146,23.794105 L4.47136474,27.640288 C4.35319642,27.6621589 4.23453846,27.6730944 4.117023,27.6730944 L4.117023,27.6730944 Z M10.3993666,14.9652668 L31.433817,14.9652668 C32.003767,14.9652668 32.4674634,14.5014072 32.4674634,13.9314572 L32.4674634,7.53339355 L9.30533035,7.53339355 L9.30533035,13.8710673 C9.30533035,14.4743133 9.7961206,14.9652668 10.3993666,14.9652668 L10.3993666,14.9652668 Z M9.30533035,6.71715078 L32.4674634,6.71715078 L32.4674634,3.70712297 L9.30533035,3.70712297 L9.30533035,6.71715078 L9.30533035,6.71715078 Z M9.30533035,2.89104342 L32.4674634,2.89104342 L32.4674634,1.84972591 C32.4674634,1.27977595 32.003767,0.816079551 31.433817,0.816079551 L10.3389767,0.816079551 C9.76902675,0.816079551 9.30533035,1.27977595 9.30533035,1.84972591 L9.30533035,2.89104342 L9.30533035,2.89104342 Z" id="Shape" stroke="#373737" fill="#373737"></path>
                <path d="M8.4892508,11.6674893 L1.72721564,12.9288219 C1.13408902,13.0394823 0.741554761,13.6120437 0.852215148,14.2048439 L3.04551055,25.9630813 C3.09920858,26.2503413 3.2614452,26.4994087 3.5025151,26.6647465 C3.743585,26.8300842 4.03443575,26.891943 4.32185897,26.8379185 L24.9401088,22.9918988 C25.2273688,22.938364 25.4765995,22.7761274 25.6419372,22.5350575 C25.807275,22.2939876 25.8686441,22.0029736 25.8151093,21.7155504 L24.708179,15.7813464 L10.3389767,15.7813464 C9.31887727,15.7813464 8.4892508,14.9515567 8.4892508,13.9314572 L8.4892508,11.6674893 L8.4892508,11.6674893 Z" id="Path" stroke="#FFC83D" fill="#FFC83D"></path>
                <path d="M3.9764941,22.9248171 C3.78389933,22.9248171 3.61252262,22.787879 3.57579904,22.5915302 C3.53450542,22.3702094 3.68058366,22.1570495 3.90206765,22.1155926 L7.71789241,21.403808 C7.93921319,21.3636569 8.15253638,21.5085926 8.19383,21.7302399 C8.23512363,21.9515606 8.08904539,22.1647206 7.8675614,22.2061774 L4.05173664,22.917962 C4.02660139,22.9225321 4.00130292,22.9248171 3.9764941,22.9248171 L3.9764941,22.9248171 Z" id="Path" stroke="#373737" fill="#373737"></path>
                <path d="M9.23841183,21.9432366 C9.04581706,21.9432366 8.87444035,21.8062985 8.83771677,21.6099497 C8.79642315,21.388629 8.94250139,21.175469 9.16398538,21.1340121 L12.9798101,20.4222275 C13.2008045,20.3820764 13.4144541,20.5270122 13.4557477,20.7486594 C13.4970414,20.9699801 13.3509631,21.1831401 13.1294791,21.224597 L9.31365436,21.9363815 C9.2883559,21.9411148 9.26322065,21.9432366 9.23841183,21.9432366 L9.23841183,21.9432366 Z" id="Path" stroke="#373737" fill="#373737"></path>
                <path d="M14.5001663,20.9618193 C14.3075716,20.9618193 14.1361949,20.8248812 14.0994713,20.6285325 C14.0581777,20.4072117 14.2042559,20.1940517 14.4257399,20.1525949 L18.2415647,19.4408103 C18.4623958,19.4006592 18.6762086,19.5455949 18.7175022,19.7672421 C18.7587959,19.9885629 18.6127176,20.2017229 18.3912336,20.2431797 L14.5754089,20.9549643 C14.5502736,20.9595343 14.5249752,20.9618193 14.5001663,20.9618193 L14.5001663,20.9618193 Z" id="Path" stroke="#373737" fill="#373737"></path>
                <path d="M19.7619209,19.9802389 C19.5693261,19.9802389 19.3979494,19.8433007 19.3612258,19.646952 C19.3199322,19.4256312 19.4660104,19.2124712 19.6874944,19.1710144 L23.5033192,18.4592298 C23.7246399,18.4190787 23.9379631,18.5640144 23.9792568,18.7856616 C24.0205504,19.0069824 23.8744721,19.2201424 23.6529882,19.2615992 L19.8371634,19.9733838 C19.8120281,19.9779538 19.7868929,19.9802389 19.7619209,19.9802389 L19.7619209,19.9802389 Z" id="Path" stroke="#373737" fill="#373737"></path>
                <path d="M2.8839268,18.8822854 L2.58393596,17.2736294 C2.4664205,16.6434528 2.88343715,16.0349839 3.513777,15.917142 L6.00004496,15.4534456 C6.62973194,15.3354405 7.2386905,15.7529468 7.35653239,16.3832866 L7.65652323,17.9919426 C7.77403868,18.6221193 7.35702203,19.2305882 6.72651897,19.3484301 L4.24025101,19.8122897 C4.16859923,19.8255102 4.09727387,19.8320388 4.0267646,19.8320388 C3.4778695,19.8320388 2.98805855,19.4409735 2.8839268,18.8822854 Z" id="Path" stroke="#373737" fill="#373737"></path>
                <path d="M6.21353137,16.249776 C6.19247651,16.249776 6.17109523,16.2517346 6.14971395,16.255815 L3.66344599,16.7195114 C3.47558447,16.7546028 3.35105073,16.9359357 3.38614215,17.1241237 L3.686133,18.7327797 C3.72122442,18.920478 3.90304694,19.0450117 4.09074524,19.0099203 L6.57684998,18.5460607 C6.76487471,18.5109692 6.88940845,18.3296364 6.85431703,18.1414484 L6.55432619,16.5329556 C6.52315195,16.3663122 6.37707371,16.249776 6.21353137,16.249776 L6.21353137,16.249776 Z" id="Path" stroke="#FFFFFF" fill="#FFFFFF"></path>
            </g>
        </g>
    </g>
</svg>