<?xml version="1.0" encoding="UTF-8"?>
<svg width="31px" height="30px" viewBox="0 0 31 30" version="1.1" xmlns="http://www.w3.org/2000/svg" xmlns:xlink="http://www.w3.org/1999/xlink">
    <!-- Generator: Sketch 47.1 (45422) - http://www.bohemiancoding.com/sketch -->
    <title>weather</title>
    <desc>Created with Sketch.</desc>
    <defs></defs>
    <g id="Page-1" stroke="none" stroke-width="1" fill="none" fill-rule="evenodd">
        <g id="101_InsureMyCar-Insurance-Copy" transform="translate(-1099.000000, -610.000000)">
            <g id="weather" transform="translate(1099.333333, 610.000000)">
                <path d="M29.9419572,12.4494925 C27.4752697,6.27078858 21.9591245,2.24730941 15.657413,1.99019193 L15.657413,0.636861416 C15.657413,0.251146912 15.3996994,0 15.0191883,0 C14.6386772,0 14.3810403,0.257117488 14.3810403,0.636861416 L14.3810403,1.99019193 C8.07303928,2.24730941 2.49545698,6.33807237 0.0287694946,12.5717362 C-0.142886183,13.165885 0.488972383,13.6311307 0.985991502,13.3371946 C1.62421621,12.9514801 2.26236421,12.7616465 2.9619493,12.7616465 C4.36717882,12.7616465 5.64316803,13.5271049 6.47160993,14.8071045 C6.90128603,15.4009471 7.37974363,14.9970147 7.49026902,14.8071045 C8.27560525,13.4598211 9.65621392,12.7616465 10.9999296,12.7616465 C12.3316801,12.7616465 13.5525984,13.4538505 14.3810403,14.6172708 L14.3810403,27.6360347 C14.3810403,28.2116595 13.9331095,28.7199239 13.3623812,28.7199239 C12.791883,28.7199239 12.3440289,28.2116595 12.3440289,27.6360347 L12.3440289,26.5521456 C12.3440289,26.1664311 12.0860085,25.9152842 11.7058042,25.9152842 C11.3252931,25.9152842 11.0676562,26.1727078 11.0676562,26.5521456 L11.0676562,27.6360347 C11.0676562,28.9161109 12.0860085,30 13.3623812,30 C14.6386772,30 15.657413,28.9161109 15.657413,27.6360347 L15.657413,14.6354887 C16.5409258,13.4660978 17.7618441,12.7679232 19.0382168,12.7679232 C20.4433696,12.7679232 21.7197423,13.5333816 22.5481842,14.8131516 C22.9652047,15.4194712 23.4991168,15.0089559 23.634263,14.8131516 C24.530048,13.5333816 25.8001312,12.7679232 27.1439237,12.7679232 C27.8435088,12.7679232 28.4816568,12.9577569 29.1198048,13.3434714 C30.0953582,13.9068488 30.2058836,12.8901669 29.9419572,12.4494925 L29.9419572,12.4494925 Z" id="Fill-1" fill="#373737"></path>
                <path d="M27.0765039,11.4941238 C25.548477,11.4941238 24.1435542,12.198269 23.0574754,13.4107552 C21.9713966,12.198269 20.5722264,11.4941238 19.0382168,11.4941238 C17.5104966,11.4941238 16.1053438,12.198269 15.0191883,13.4107552 C13.9331095,12.198269 12.5339393,11.4941238 10.9999296,11.4941238 C9.47220946,11.4941238 8.06705664,12.198269 6.98097783,13.4107552 C5.89482231,12.198269 4.49595893,11.4941238 2.9619493,11.4941238 C2.58143822,11.4941238 2.26236421,11.5554371 1.87587049,11.6227208 C4.42823241,6.50938197 9.46592002,3.25771455 15.0191883,3.25771455 C20.5662438,3.25771455 25.609914,6.51565873 28.1562933,11.6227208 C27.776089,11.5554371 27.457015,11.4941238 27.0765039,11.4941238 L27.0765039,11.4941238 Z" id="Path" fill="#FFC83D"></path>
            </g>
        </g>
    </g>
</svg>